<?xml version="1.0" encoding="UTF-8" standalone="no"?>
<!DOCTYPE svg PUBLIC "-//W3C//DTD SVG 1.1//EN" "http://www.w3.org/Graphics/SVG/1.1/DTD/svg11.dtd">
<svg width="100%" height="100%" viewBox="0 0 200 400" version="1.1" xmlns="http://www.w3.org/2000/svg" xmlns:xlink="http://www.w3.org/1999/xlink" xml:space="preserve" xmlns:serif="http://www.serif.com/" style="fill-rule:evenodd;clip-rule:evenodd;stroke-linejoin:round;stroke-miterlimit:2;">
    <g transform="matrix(1,0,0,1,0,-92.2399)">
        <g id="Search">
        </g>
        <g id="Gold_Red_Wrap" transform="matrix(1.59635,0,0,2.67513,0,-126.271)">
            <rect x="0" y="81.682" width="125.286" height="149.525" style="fill:none;"/>
            <clipPath id="_clip1">
                <rect x="0" y="81.682" width="125.286" height="149.525"/>
            </clipPath>
            <g clip-path="url(#_clip1)">
                <g transform="matrix(1.49396,0,0,0.713347,-177.652,21.6677)">
                    <rect x="118.914" y="105.092" width="83.862" height="20.961" style="fill:rgb(236,211,109);"/>
                </g>
                <g transform="matrix(3.5686e-15,1.783,-1.19542,8.51979e-16,225.857,-130.341)">
                    <rect x="118.914" y="105.092" width="83.862" height="20.961" style="fill:rgb(236,211,109);"/>
                </g>
                <g transform="matrix(0.542504,-0.186906,0.313215,0.323732,-93.0272,77.1193)">
                    <path d="M153.054,85.031L126.797,85.031L126.797,485.031L153.054,485.031L153.054,85.031ZM179.525,85.031L163.253,85.031L163.253,485.031L179.525,485.031L179.525,85.031Z" style="fill:rgb(236,211,109);"/>
                </g>
                <g transform="matrix(0.62643,0,0,0.373813,-74.4911,49.8966)">
                    <path d="M278.914,301.06L278.914,353.574L238.914,284.292L238.914,231.778L278.914,301.06ZM278.914,248.119L278.914,280.664L238.914,211.382L238.914,178.837L278.914,248.119ZM212.153,165.031L189.059,125.031L207.849,125.031L230.943,165.031L212.153,165.031ZM170.058,165.031L146.964,125.031L177.283,125.031L200.377,165.031L170.058,165.031Z" style="fill:rgb(232,222,181);"/>
                </g>
                <g transform="matrix(0.62643,0,0,0.373813,-74.4911,49.8966)">
                    <path d="M318.914,370.342L318.914,422.856L278.914,353.574L278.914,301.06L318.914,370.342ZM318.914,317.401L318.914,349.946L278.914,280.664L278.914,248.119L318.914,317.401ZM200.377,165.031L238.914,231.778L238.914,284.292L170.058,165.031L200.377,165.031ZM230.943,165.031L238.914,178.837L238.914,211.382L212.153,165.031L230.943,165.031ZM154.189,85.031L177.283,125.031L146.964,125.031L123.87,85.031L154.189,85.031ZM184.755,85.031L207.849,125.031L189.059,125.031L165.965,85.031L184.755,85.031Z" style="fill:rgb(221,95,95);"/>
                </g>
                <g transform="matrix(1.25286,0,0,0.747626,-3.75858,18.1109)">
                    <rect x="47.136" y="105.031" width="15.864" height="20" style="fill:url(#_Linear2);"/>
                </g>
                <g transform="matrix(-1.25286,9.15578e-17,-1.53431e-16,-0.747626,179.159,190.111)">
                    <rect x="47.136" y="105.031" width="15.864" height="20" style="fill:url(#_Linear3);"/>
                </g>
                <g transform="matrix(1.42999,0,0,0.853329,-14.9181,9.12295)">
                    <rect x="63" y="85.031" width="17.523" height="3.202" style="fill:rgb(232,222,181);"/>
                </g>
                <g transform="matrix(8.75619e-17,0.853329,-1.42999,5.22513e-17,246.88,42.8751)">
                    <rect x="63" y="85.031" width="17.523" height="3.202" style="fill:rgb(232,222,181);"/>
                </g>
            </g>
        </g>
    </g>
    <defs>
        <linearGradient id="_Linear2" x1="0" y1="0" x2="1" y2="0" gradientUnits="userSpaceOnUse" gradientTransform="matrix(15.8637,0,0,20,47.1363,115.031)"><stop offset="0" style="stop-color:white;stop-opacity:0"/><stop offset="0.55" style="stop-color:rgb(233,228,210);stop-opacity:0.07"/><stop offset="1" style="stop-color:rgb(149,128,39);stop-opacity:0.36"/></linearGradient>
        <linearGradient id="_Linear3" x1="0" y1="0" x2="1" y2="0" gradientUnits="userSpaceOnUse" gradientTransform="matrix(15.8637,0,0,20,47.1363,115.031)"><stop offset="0" style="stop-color:white;stop-opacity:0"/><stop offset="0.55" style="stop-color:rgb(233,228,210);stop-opacity:0.07"/><stop offset="1" style="stop-color:rgb(149,128,39);stop-opacity:0.36"/></linearGradient>
    </defs>
</svg>
