<?xml version="1.0" encoding="UTF-8" standalone="no"?>
<!DOCTYPE svg PUBLIC "-//W3C//DTD SVG 1.1//EN" "http://www.w3.org/Graphics/SVG/1.1/DTD/svg11.dtd">
<svg width="100%" height="100%" viewBox="0 0 750 1334" version="1.1" xmlns="http://www.w3.org/2000/svg" xmlns:xlink="http://www.w3.org/1999/xlink" xml:space="preserve" xmlns:serif="http://www.serif.com/" style="fill-rule:evenodd;clip-rule:evenodd;stroke-linejoin:round;stroke-miterlimit:2;">
    <g id="Night-Sky" serif:id="Night Sky">
        <rect x="0" y="0" width="750" height="1334" style="fill:rgb(38,34,74);"/>
        <g transform="matrix(0.478029,0,0,0.478029,-9.77262,5.58357)">
            <path d="M137.657,96.869C139.039,92.867 142.807,90.182 147.041,90.182C151.274,90.182 155.042,92.867 156.424,96.869C157.324,99.477 158.145,101.855 158.803,103.76C159.799,106.642 162.064,108.908 164.947,109.903C166.852,110.561 169.229,111.382 171.838,112.282C175.839,113.664 178.525,117.432 178.525,121.666C178.525,125.899 175.839,129.667 171.838,131.049C169.229,131.95 166.852,132.771 164.947,133.428C162.064,134.424 159.799,136.689 158.803,139.572C158.145,141.477 157.324,143.854 156.424,146.463C155.042,150.464 151.274,153.15 147.041,153.15C142.807,153.15 139.039,150.464 137.657,146.463C136.757,143.854 135.936,141.477 135.278,139.572C134.283,136.689 132.017,134.424 129.135,133.428C127.23,132.771 124.852,131.95 122.244,131.049C118.242,129.667 115.557,125.899 115.557,121.666C115.557,117.432 118.242,113.664 122.244,112.282C124.852,111.382 127.23,110.561 129.135,109.903C132.017,108.908 134.283,106.642 135.278,103.76C135.936,101.855 136.757,99.477 137.657,96.869Z" style="fill:rgb(144,151,192);"/>
        </g>
        <g transform="matrix(0.478029,0,0,0.478029,-3.65901,85.8749)">
            <path d="M137.657,96.869C139.039,92.867 142.807,90.182 147.041,90.182C151.274,90.182 155.042,92.867 156.424,96.869C157.324,99.477 158.145,101.855 158.803,103.76C159.799,106.642 162.064,108.908 164.947,109.903C166.852,110.561 169.229,111.382 171.838,112.282C175.839,113.664 178.525,117.432 178.525,121.666C178.525,125.899 175.839,129.667 171.838,131.049C169.229,131.95 166.852,132.771 164.947,133.428C162.064,134.424 159.799,136.689 158.803,139.572C158.145,141.477 157.324,143.854 156.424,146.463C155.042,150.464 151.274,153.15 147.041,153.15C142.807,153.15 139.039,150.464 137.657,146.463C136.757,143.854 135.936,141.477 135.278,139.572C134.283,136.689 132.017,134.424 129.135,133.428C127.23,132.771 124.852,131.95 122.244,131.049C118.242,129.667 115.557,125.899 115.557,121.666C115.557,117.432 118.242,113.664 122.244,112.282C124.852,111.382 127.23,110.561 129.135,109.903C132.017,108.908 134.283,106.642 135.278,103.76C135.936,101.855 136.757,99.477 137.657,96.869Z" style="fill:rgb(144,151,192);"/>
        </g>
        <g transform="matrix(0.478029,0,0,0.478029,228.431,20.6338)">
            <path d="M137.657,96.869C139.039,92.867 142.807,90.182 147.041,90.182C151.274,90.182 155.042,92.867 156.424,96.869C157.324,99.477 158.145,101.855 158.803,103.76C159.799,106.642 162.064,108.908 164.947,109.903C166.852,110.561 169.229,111.382 171.838,112.282C175.839,113.664 178.525,117.432 178.525,121.666C178.525,125.899 175.839,129.667 171.838,131.049C169.229,131.95 166.852,132.771 164.947,133.428C162.064,134.424 159.799,136.689 158.803,139.572C158.145,141.477 157.324,143.854 156.424,146.463C155.042,150.464 151.274,153.15 147.041,153.15C142.807,153.15 139.039,150.464 137.657,146.463C136.757,143.854 135.936,141.477 135.278,139.572C134.283,136.689 132.017,134.424 129.135,133.428C127.23,132.771 124.852,131.95 122.244,131.049C118.242,129.667 115.557,125.899 115.557,121.666C115.557,117.432 118.242,113.664 122.244,112.282C124.852,111.382 127.23,110.561 129.135,109.903C132.017,108.908 134.283,106.642 135.278,103.76C135.936,101.855 136.757,99.477 137.657,96.869Z" style="fill:rgb(144,151,192);"/>
        </g>
        <g transform="matrix(0.478029,0,0,0.478029,1.79001,284.062)">
            <path d="M137.657,96.869C139.039,92.867 142.807,90.182 147.041,90.182C151.274,90.182 155.042,92.867 156.424,96.869C157.324,99.477 158.145,101.855 158.803,103.76C159.799,106.642 162.064,108.908 164.947,109.903C166.852,110.561 169.229,111.382 171.838,112.282C175.839,113.664 178.525,117.432 178.525,121.666C178.525,125.899 175.839,129.667 171.838,131.049C169.229,131.95 166.852,132.771 164.947,133.428C162.064,134.424 159.799,136.689 158.803,139.572C158.145,141.477 157.324,143.854 156.424,146.463C155.042,150.464 151.274,153.15 147.041,153.15C142.807,153.15 139.039,150.464 137.657,146.463C136.757,143.854 135.936,141.477 135.278,139.572C134.283,136.689 132.017,134.424 129.135,133.428C127.23,132.771 124.852,131.95 122.244,131.049C118.242,129.667 115.557,125.899 115.557,121.666C115.557,117.432 118.242,113.664 122.244,112.282C124.852,111.382 127.23,110.561 129.135,109.903C132.017,108.908 134.283,106.642 135.278,103.76C135.936,101.855 136.757,99.477 137.657,96.869Z" style="fill:rgb(144,151,192);"/>
        </g>
        <g transform="matrix(0.478029,0,0,0.478029,231.042,315.876)">
            <path d="M137.657,96.869C139.039,92.867 142.807,90.182 147.041,90.182C151.274,90.182 155.042,92.867 156.424,96.869C157.324,99.477 158.145,101.855 158.803,103.76C159.799,106.642 162.064,108.908 164.947,109.903C166.852,110.561 169.229,111.382 171.838,112.282C175.839,113.664 178.525,117.432 178.525,121.666C178.525,125.899 175.839,129.667 171.838,131.049C169.229,131.95 166.852,132.771 164.947,133.428C162.064,134.424 159.799,136.689 158.803,139.572C158.145,141.477 157.324,143.854 156.424,146.463C155.042,150.464 151.274,153.15 147.041,153.15C142.807,153.15 139.039,150.464 137.657,146.463C136.757,143.854 135.936,141.477 135.278,139.572C134.283,136.689 132.017,134.424 129.135,133.428C127.23,132.771 124.852,131.95 122.244,131.049C118.242,129.667 115.557,125.899 115.557,121.666C115.557,117.432 118.242,113.664 122.244,112.282C124.852,111.382 127.23,110.561 129.135,109.903C132.017,108.908 134.283,106.642 135.278,103.76C135.936,101.855 136.757,99.477 137.657,96.869Z" style="fill:rgb(144,151,192);"/>
        </g>
        <g transform="matrix(0.478029,0,0,0.478029,473.533,126.256)">
            <path d="M137.657,96.869C139.039,92.867 142.807,90.182 147.041,90.182C151.274,90.182 155.042,92.867 156.424,96.869C157.324,99.477 158.145,101.855 158.803,103.76C159.799,106.642 162.064,108.908 164.947,109.903C166.852,110.561 169.229,111.382 171.838,112.282C175.839,113.664 178.525,117.432 178.525,121.666C178.525,125.899 175.839,129.667 171.838,131.049C169.229,131.95 166.852,132.771 164.947,133.428C162.064,134.424 159.799,136.689 158.803,139.572C158.145,141.477 157.324,143.854 156.424,146.463C155.042,150.464 151.274,153.15 147.041,153.15C142.807,153.15 139.039,150.464 137.657,146.463C136.757,143.854 135.936,141.477 135.278,139.572C134.283,136.689 132.017,134.424 129.135,133.428C127.23,132.771 124.852,131.95 122.244,131.049C118.242,129.667 115.557,125.899 115.557,121.666C115.557,117.432 118.242,113.664 122.244,112.282C124.852,111.382 127.23,110.561 129.135,109.903C132.017,108.908 134.283,106.642 135.278,103.76C135.936,101.855 136.757,99.477 137.657,96.869Z" style="fill:rgb(144,151,192);"/>
        </g>
        <g transform="matrix(0.478029,0,0,0.478029,529.688,314.163)">
            <path d="M137.657,96.869C139.039,92.867 142.807,90.182 147.041,90.182C151.274,90.182 155.042,92.867 156.424,96.869C157.324,99.477 158.145,101.855 158.803,103.76C159.799,106.642 162.064,108.908 164.947,109.903C166.852,110.561 169.229,111.382 171.838,112.282C175.839,113.664 178.525,117.432 178.525,121.666C178.525,125.899 175.839,129.667 171.838,131.049C169.229,131.95 166.852,132.771 164.947,133.428C162.064,134.424 159.799,136.689 158.803,139.572C158.145,141.477 157.324,143.854 156.424,146.463C155.042,150.464 151.274,153.15 147.041,153.15C142.807,153.15 139.039,150.464 137.657,146.463C136.757,143.854 135.936,141.477 135.278,139.572C134.283,136.689 132.017,134.424 129.135,133.428C127.23,132.771 124.852,131.95 122.244,131.049C118.242,129.667 115.557,125.899 115.557,121.666C115.557,117.432 118.242,113.664 122.244,112.282C124.852,111.382 127.23,110.561 129.135,109.903C132.017,108.908 134.283,106.642 135.278,103.76C135.936,101.855 136.757,99.477 137.657,96.869Z" style="fill:rgb(144,151,192);"/>
        </g>
        <g transform="matrix(0.478029,0,0,0.478029,402.888,238.912)">
            <path d="M137.657,96.869C139.039,92.867 142.807,90.182 147.041,90.182C151.274,90.182 155.042,92.867 156.424,96.869C157.324,99.477 158.145,101.855 158.803,103.76C159.799,106.642 162.064,108.908 164.947,109.903C166.852,110.561 169.229,111.382 171.838,112.282C175.839,113.664 178.525,117.432 178.525,121.666C178.525,125.899 175.839,129.667 171.838,131.049C169.229,131.95 166.852,132.771 164.947,133.428C162.064,134.424 159.799,136.689 158.803,139.572C158.145,141.477 157.324,143.854 156.424,146.463C155.042,150.464 151.274,153.15 147.041,153.15C142.807,153.15 139.039,150.464 137.657,146.463C136.757,143.854 135.936,141.477 135.278,139.572C134.283,136.689 132.017,134.424 129.135,133.428C127.23,132.771 124.852,131.95 122.244,131.049C118.242,129.667 115.557,125.899 115.557,121.666C115.557,117.432 118.242,113.664 122.244,112.282C124.852,111.382 127.23,110.561 129.135,109.903C132.017,108.908 134.283,106.642 135.278,103.76C135.936,101.855 136.757,99.477 137.657,96.869Z" style="fill:rgb(144,151,192);"/>
        </g>
        <g transform="matrix(0.478029,0,0,0.478029,335.864,82.1461)">
            <path d="M137.657,96.869C139.039,92.867 142.807,90.182 147.041,90.182C151.274,90.182 155.042,92.867 156.424,96.869C157.324,99.477 158.145,101.855 158.803,103.76C159.799,106.642 162.064,108.908 164.947,109.903C166.852,110.561 169.229,111.382 171.838,112.282C175.839,113.664 178.525,117.432 178.525,121.666C178.525,125.899 175.839,129.667 171.838,131.049C169.229,131.95 166.852,132.771 164.947,133.428C162.064,134.424 159.799,136.689 158.803,139.572C158.145,141.477 157.324,143.854 156.424,146.463C155.042,150.464 151.274,153.15 147.041,153.15C142.807,153.15 139.039,150.464 137.657,146.463C136.757,143.854 135.936,141.477 135.278,139.572C134.283,136.689 132.017,134.424 129.135,133.428C127.23,132.771 124.852,131.95 122.244,131.049C118.242,129.667 115.557,125.899 115.557,121.666C115.557,117.432 118.242,113.664 122.244,112.282C124.852,111.382 127.23,110.561 129.135,109.903C132.017,108.908 134.283,106.642 135.278,103.76C135.936,101.855 136.757,99.477 137.657,96.869Z" style="fill:rgb(144,151,192);"/>
        </g>
        <g transform="matrix(0.478029,0,0,0.478029,544.738,39.4421)">
            <path d="M137.657,96.869C139.039,92.867 142.807,90.182 147.041,90.182C151.274,90.182 155.042,92.867 156.424,96.869C157.324,99.477 158.145,101.855 158.803,103.76C159.799,106.642 162.064,108.908 164.947,109.903C166.852,110.561 169.229,111.382 171.838,112.282C175.839,113.664 178.525,117.432 178.525,121.666C178.525,125.899 175.839,129.667 171.838,131.049C169.229,131.95 166.852,132.771 164.947,133.428C162.064,134.424 159.799,136.689 158.803,139.572C158.145,141.477 157.324,143.854 156.424,146.463C155.042,150.464 151.274,153.15 147.041,153.15C142.807,153.15 139.039,150.464 137.657,146.463C136.757,143.854 135.936,141.477 135.278,139.572C134.283,136.689 132.017,134.424 129.135,133.428C127.23,132.771 124.852,131.95 122.244,131.049C118.242,129.667 115.557,125.899 115.557,121.666C115.557,117.432 118.242,113.664 122.244,112.282C124.852,111.382 127.23,110.561 129.135,109.903C132.017,108.908 134.283,106.642 135.278,103.76C135.936,101.855 136.757,99.477 137.657,96.869Z" style="fill:rgb(144,151,192);"/>
        </g>
        <g transform="matrix(0.478029,0,0,0.478029,633.151,223.861)">
            <path d="M137.657,96.869C139.039,92.867 142.807,90.182 147.041,90.182C151.274,90.182 155.042,92.867 156.424,96.869C157.324,99.477 158.145,101.855 158.803,103.76C159.799,106.642 162.064,108.908 164.947,109.903C166.852,110.561 169.229,111.382 171.838,112.282C175.839,113.664 178.525,117.432 178.525,121.666C178.525,125.899 175.839,129.667 171.838,131.049C169.229,131.95 166.852,132.771 164.947,133.428C162.064,134.424 159.799,136.689 158.803,139.572C158.145,141.477 157.324,143.854 156.424,146.463C155.042,150.464 151.274,153.15 147.041,153.15C142.807,153.15 139.039,150.464 137.657,146.463C136.757,143.854 135.936,141.477 135.278,139.572C134.283,136.689 132.017,134.424 129.135,133.428C127.23,132.771 124.852,131.95 122.244,131.049C118.242,129.667 115.557,125.899 115.557,121.666C115.557,117.432 118.242,113.664 122.244,112.282C124.852,111.382 127.23,110.561 129.135,109.903C132.017,108.908 134.283,106.642 135.278,103.76C135.936,101.855 136.757,99.477 137.657,96.869Z" style="fill:rgb(144,151,192);"/>
        </g>
        <g transform="matrix(1,0,0,1,55.9437,1.66863)">
            <circle cx="164.19" cy="220.97" r="100.353" style="fill:rgb(144,151,192);"/>
        </g>
        <path d="M238.036,123.88C284.893,132.331 320.488,173.361 320.488,222.638C320.488,278.025 275.521,322.992 220.134,322.992C209.306,322.992 198.876,321.273 189.098,318.092C165.086,297.875 149.733,267.04 149.733,232.519C149.733,178.08 187.916,132.804 238.036,123.88Z" style="fill:rgb(101,111,173);"/>
        <g transform="matrix(0.978182,0.207751,-0.207751,0.978182,70.9211,-39.9967)">
            <path d="M229.186,261.631C231.486,261.631 233.35,259.767 233.35,257.467C233.35,256.299 233.35,255.34 233.35,255.34L236.389,255.341C236.389,258.815 239.205,261.631 242.679,261.631L249.984,261.631C261.043,261.631 261.043,255.34 261.043,255.34L264.083,255.34L264.083,257.467C264.083,259.767 265.947,261.631 268.247,261.631L271.146,261.631C274.496,261.631 274.496,262.548 274.496,263.374C274.496,263.718 274.36,264.047 274.117,264.29C273.874,264.534 273.544,264.67 273.2,264.67C265.501,264.67 225.831,264.67 217.546,264.67C217.143,264.67 216.757,264.51 216.473,264.225C216.188,263.941 216.028,263.555 216.028,263.152C216.028,263.151 216.028,263.15 216.028,263.149C216.028,262.311 216.708,261.631 217.546,261.631C220.122,261.631 225.433,261.631 229.186,261.631ZM251.419,197.7L251.419,197.697C251.419,196.166 252.661,194.924 254.191,194.924C255.722,194.924 256.964,196.166 256.964,197.697C256.964,199.227 255.722,200.47 254.191,200.47C253.086,200.47 252.132,199.822 251.686,198.886C245.762,202.238 245.88,208.437 246.248,211.104C246.29,211.375 246.189,211.65 245.981,211.829C245.773,212.009 245.487,212.068 245.225,211.987L244.804,211.856C244.794,213.397 244.241,214.802 243.338,215.869C246.562,217.853 248.947,222.168 249.495,227.359L254.516,227.359C254.75,227.359 254.982,227.339 255.21,227.299C251.89,225.549 249.614,221.993 249.614,217.894C249.614,212.065 254.214,207.333 259.88,207.333C264.463,207.333 268.348,210.429 269.666,214.698C271.838,214.758 273.58,216.537 273.58,218.723C273.58,226.506 273.58,243.531 273.58,251.314C273.58,252.382 273.155,253.406 272.4,254.161C271.645,254.916 270.621,255.34 269.553,255.34C258.764,255.34 230.019,255.34 230.019,255.34C222.297,255.34 216.028,249.072 216.028,241.35C216.028,233.902 221.86,227.806 229.201,227.383C229.723,222.38 231.952,218.188 234.994,216.107C233.957,215.006 233.316,213.488 233.316,211.813C233.316,210.61 233.647,209.488 234.218,208.543L234.11,208.509C233.753,208.398 233.458,208.143 233.296,207.806C233.134,207.469 233.119,207.08 233.255,206.732C236.414,198.901 246.486,197.769 251.419,197.7Z" style="fill:rgb(55,56,61);"/>
        </g>
    </g>
    <g id="Background">
        <g id="Brick-Wall" serif:id="Brick Wall">
            <rect x="0" y="461.438" width="750" height="872.562" style="fill:rgb(120,107,91);"/>
            <path d="M0,1326.03L50.722,1326.03C54.545,1326.03 57.644,1329.13 57.644,1332.95L57.644,1334L0,1334L0,1326.03ZM75.105,1334L75.105,1332.95C75.105,1329.13 78.204,1326.03 82.027,1326.03C100.334,1326.03 149.875,1326.03 168.183,1326.03C172.006,1326.03 175.105,1329.13 175.105,1332.95L175.105,1334L75.105,1334ZM192.565,1334L192.565,1332.95C192.565,1329.13 195.664,1326.03 199.487,1326.03C217.795,1326.03 267.336,1326.03 285.643,1326.03C289.466,1326.03 292.565,1329.13 292.565,1332.95L292.565,1334L192.565,1334ZM310.026,1334L310.026,1332.95C310.026,1329.13 313.125,1326.03 316.948,1326.03C335.256,1326.03 384.796,1326.03 403.104,1326.03C406.927,1326.03 410.026,1329.13 410.026,1332.95L410.026,1334L310.026,1334ZM427.486,1334L427.486,1332.95C427.486,1329.13 430.586,1326.03 434.409,1326.03C452.716,1326.03 502.257,1326.03 520.564,1326.03C524.387,1326.03 527.486,1329.13 527.486,1332.95L527.486,1334L427.486,1334ZM544.947,1334L544.947,1332.95C544.947,1329.13 548.046,1326.03 551.869,1326.03C570.177,1326.03 619.717,1326.03 638.025,1326.03C641.848,1326.03 644.947,1329.13 644.947,1332.95L644.947,1334L544.947,1334ZM750,1326.03L750,1334L662.408,1334L662.408,1332.95C662.408,1329.13 665.507,1326.03 669.33,1326.03L750,1326.03ZM115.098,1269.41C115.098,1265.59 111.999,1262.49 108.176,1262.49C89.868,1262.49 40.328,1262.49 22.02,1262.49C18.197,1262.49 15.098,1265.59 15.098,1269.41C15.098,1278.94 15.098,1296.03 15.098,1305.56C15.098,1309.39 18.197,1312.49 22.02,1312.49C40.328,1312.49 89.868,1312.49 108.176,1312.49C111.999,1312.49 115.098,1309.39 115.098,1305.56C115.098,1296.03 115.098,1278.94 115.098,1269.41ZM232.558,1269.41C232.558,1265.59 229.459,1262.49 225.636,1262.49C207.329,1262.49 157.788,1262.49 139.481,1262.49C135.658,1262.49 132.558,1265.59 132.558,1269.41C132.558,1278.94 132.558,1296.03 132.558,1305.56C132.558,1309.39 135.658,1312.49 139.481,1312.49C157.788,1312.49 207.329,1312.49 225.636,1312.49C229.459,1312.49 232.558,1309.39 232.558,1305.56C232.558,1296.03 232.558,1278.94 232.558,1269.41ZM350.019,1269.41C350.019,1265.59 346.92,1262.49 343.097,1262.49C324.789,1262.49 275.249,1262.49 256.941,1262.49C253.118,1262.49 250.019,1265.59 250.019,1269.41C250.019,1278.94 250.019,1296.03 250.019,1305.56C250.019,1309.39 253.118,1312.49 256.941,1312.49C275.249,1312.49 324.789,1312.49 343.097,1312.49C346.92,1312.49 350.019,1309.39 350.019,1305.56C350.019,1296.03 350.019,1278.94 350.019,1269.41ZM467.48,1269.41C467.48,1265.59 464.38,1262.49 460.557,1262.49C442.25,1262.49 392.709,1262.49 374.402,1262.49C370.579,1262.49 367.48,1265.59 367.48,1269.41C367.48,1278.94 367.48,1296.03 367.48,1305.56C367.48,1309.39 370.579,1312.49 374.402,1312.49C392.709,1312.49 442.25,1312.49 460.557,1312.49C464.38,1312.49 467.48,1309.39 467.48,1305.56C467.48,1296.03 467.48,1278.94 467.48,1269.41ZM584.94,1269.41C584.94,1265.59 581.841,1262.49 578.018,1262.49C559.71,1262.49 510.17,1262.49 491.862,1262.49C488.039,1262.49 484.94,1265.59 484.94,1269.41C484.94,1278.94 484.94,1296.03 484.94,1305.56C484.94,1309.39 488.039,1312.49 491.862,1312.49C510.17,1312.49 559.71,1312.49 578.018,1312.49C581.841,1312.49 584.94,1309.39 584.94,1305.56C584.94,1296.03 584.94,1278.94 584.94,1269.41ZM702.401,1269.41C702.401,1265.59 699.301,1262.49 695.478,1262.49C677.171,1262.49 627.63,1262.49 609.323,1262.49C605.5,1262.49 602.401,1265.59 602.401,1269.41C602.401,1278.94 602.401,1296.03 602.401,1305.56C602.401,1309.39 605.5,1312.49 609.323,1312.49C627.63,1312.49 677.171,1312.49 695.478,1312.49C699.301,1312.49 702.401,1309.39 702.401,1305.56C702.401,1296.03 702.401,1278.94 702.401,1269.41ZM750,1262.49L750,1312.49L726.783,1312.49C722.96,1312.49 719.861,1309.39 719.861,1305.56C719.861,1296.03 719.861,1278.94 719.861,1269.41C719.861,1265.59 722.96,1262.49 726.783,1262.49L750,1262.49ZM294.732,1203.82C294.732,1200 291.632,1196.9 287.809,1196.9C269.502,1196.9 219.961,1196.9 201.654,1196.9C197.831,1196.9 194.732,1200 194.732,1203.82C194.732,1213.36 194.732,1230.44 194.732,1239.97C194.732,1243.8 197.831,1246.9 201.654,1246.9C219.961,1246.9 269.502,1246.9 287.809,1246.9C291.632,1246.9 294.732,1243.8 294.732,1239.97C294.732,1230.44 294.732,1213.36 294.732,1203.82ZM647.113,1203.82C647.113,1200 644.014,1196.9 640.191,1196.9C621.884,1196.9 572.343,1196.9 554.036,1196.9C550.213,1196.9 547.113,1200 547.113,1203.82C547.113,1213.36 547.113,1230.44 547.113,1239.97C547.113,1243.8 550.213,1246.9 554.036,1246.9C572.343,1246.9 621.884,1246.9 640.191,1246.9C644.014,1246.9 647.113,1243.8 647.113,1239.97C647.113,1230.44 647.113,1213.36 647.113,1203.82ZM0,1196.9L52.888,1196.9C56.711,1196.9 59.81,1200 59.81,1203.82C59.81,1213.36 59.81,1230.44 59.81,1239.97C59.81,1243.8 56.711,1246.9 52.888,1246.9L0,1246.9L0,1196.9ZM177.271,1203.82C177.271,1200 174.172,1196.9 170.349,1196.9C152.041,1196.9 102.501,1196.9 84.193,1196.9C80.37,1196.9 77.271,1200 77.271,1203.82C77.271,1213.36 77.271,1230.44 77.271,1239.97C77.271,1243.8 80.37,1246.9 84.193,1246.9C102.501,1246.9 152.041,1246.9 170.349,1246.9C174.172,1246.9 177.271,1243.8 177.271,1239.97C177.271,1230.44 177.271,1213.36 177.271,1203.82ZM412.192,1203.82C412.192,1200 409.093,1196.9 405.27,1196.9C386.962,1196.9 337.422,1196.9 319.114,1196.9C315.291,1196.9 312.192,1200 312.192,1203.82C312.192,1213.36 312.192,1230.44 312.192,1239.97C312.192,1243.8 315.291,1246.9 319.114,1246.9C337.422,1246.9 386.962,1246.9 405.27,1246.9C409.093,1246.9 412.192,1243.8 412.192,1239.97C412.192,1230.44 412.192,1213.36 412.192,1203.82ZM529.653,1203.82C529.653,1200 526.554,1196.9 522.731,1196.9C504.423,1196.9 454.883,1196.9 436.575,1196.9C432.752,1196.9 429.653,1200 429.653,1203.82C429.653,1213.36 429.653,1230.44 429.653,1239.97C429.653,1243.8 432.752,1246.9 436.575,1246.9C454.883,1246.9 504.423,1246.9 522.731,1246.9C526.554,1246.9 529.653,1243.8 529.653,1239.97C529.653,1230.44 529.653,1213.36 529.653,1203.82ZM750,1196.9L750,1246.9L671.496,1246.9C667.673,1246.9 664.574,1243.8 664.574,1239.97C664.574,1230.44 664.574,1213.36 664.574,1203.82C664.574,1200 667.673,1196.9 671.496,1196.9L750,1196.9ZM352.185,1140.27C352.185,1136.45 349.086,1133.35 345.263,1133.35C326.956,1133.35 277.415,1133.35 259.107,1133.35C255.284,1133.35 252.185,1136.45 252.185,1140.27C252.185,1149.81 252.185,1166.89 252.185,1176.43C252.185,1180.25 255.284,1183.35 259.107,1183.35C277.415,1183.35 326.956,1183.35 345.263,1183.35C349.086,1183.35 352.185,1180.25 352.185,1176.43C352.185,1166.89 352.185,1149.81 352.185,1140.27ZM117.264,1140.27C117.264,1136.45 114.165,1133.35 110.342,1133.35C92.034,1133.35 42.494,1133.35 24.186,1133.35C20.363,1133.35 17.264,1136.45 17.264,1140.27C17.264,1149.81 17.264,1166.89 17.264,1176.43C17.264,1180.25 20.363,1183.35 24.186,1183.35C42.494,1183.35 92.034,1183.35 110.342,1183.35C114.165,1183.35 117.264,1180.25 117.264,1176.43C117.264,1166.89 117.264,1149.81 117.264,1140.27ZM469.646,1140.27C469.646,1136.45 466.547,1133.35 462.724,1133.35C444.416,1133.35 394.876,1133.35 376.568,1133.35C372.745,1133.35 369.646,1136.45 369.646,1140.27C369.646,1149.81 369.646,1166.89 369.646,1176.43C369.646,1180.25 372.745,1183.35 376.568,1183.35C394.876,1183.35 444.416,1183.35 462.724,1183.35C466.547,1183.35 469.646,1180.25 469.646,1176.43C469.646,1166.89 469.646,1149.81 469.646,1140.27ZM587.106,1140.27C587.106,1136.45 584.007,1133.35 580.184,1133.35C561.877,1133.35 512.336,1133.35 494.029,1133.35C490.206,1133.35 487.106,1136.45 487.106,1140.27C487.106,1149.81 487.106,1166.89 487.106,1176.43C487.106,1180.25 490.206,1183.35 494.029,1183.35C512.336,1183.35 561.877,1183.35 580.184,1183.35C584.007,1183.35 587.106,1180.25 587.106,1176.43C587.106,1166.89 587.106,1149.81 587.106,1140.27ZM234.725,1140.27C234.725,1136.45 231.626,1133.35 227.803,1133.35C209.495,1133.35 159.954,1133.35 141.647,1133.35C137.824,1133.35 134.725,1136.45 134.725,1140.27C134.725,1149.81 134.725,1166.89 134.725,1176.43C134.725,1180.25 137.824,1183.35 141.647,1183.35C159.954,1183.35 209.495,1183.35 227.803,1183.35C231.626,1183.35 234.725,1180.25 234.725,1176.43C234.725,1166.89 234.725,1149.81 234.725,1140.27ZM704.567,1140.27C704.567,1136.45 701.468,1133.35 697.645,1133.35C679.337,1133.35 629.797,1133.35 611.489,1133.35C607.666,1133.35 604.567,1136.45 604.567,1140.27C604.567,1149.81 604.567,1166.89 604.567,1176.43C604.567,1180.25 607.666,1183.35 611.489,1183.35C629.797,1183.35 679.337,1183.35 697.645,1183.35C701.468,1183.35 704.567,1180.25 704.567,1176.43C704.567,1166.89 704.567,1149.81 704.567,1140.27ZM750,1133.35L750,1183.35L728.95,1183.35C725.127,1183.35 722.028,1180.25 722.028,1176.43C722.028,1166.89 722.028,1149.81 722.028,1140.27C722.028,1136.45 725.127,1133.35 728.95,1133.35L750,1133.35ZM531.819,1074.68C531.819,1070.86 528.72,1067.76 524.897,1067.76C506.589,1067.76 457.049,1067.76 438.741,1067.76C434.918,1067.76 431.819,1070.86 431.819,1074.68C431.819,1084.22 431.819,1101.3 431.819,1110.84C431.819,1114.66 434.918,1117.76 438.741,1117.76C457.049,1117.76 506.589,1117.76 524.897,1117.76C528.72,1117.76 531.819,1114.66 531.819,1110.84C531.819,1101.3 531.819,1084.22 531.819,1074.68ZM649.28,1074.68C649.28,1070.86 646.181,1067.76 642.358,1067.76C624.05,1067.76 574.509,1067.76 556.202,1067.76C552.379,1067.76 549.28,1070.86 549.28,1074.68C549.28,1084.22 549.28,1101.3 549.28,1110.84C549.28,1114.66 552.379,1117.76 556.202,1117.76C574.509,1117.76 624.05,1117.76 642.358,1117.76C646.181,1117.76 649.28,1114.66 649.28,1110.84C649.28,1101.3 649.28,1084.22 649.28,1074.68ZM414.359,1074.68C414.359,1070.86 411.259,1067.76 407.436,1067.76C389.129,1067.76 339.588,1067.76 321.281,1067.76C317.458,1067.76 314.359,1070.86 314.359,1074.68C314.359,1084.22 314.359,1101.3 314.359,1110.84C314.359,1114.66 317.458,1117.76 321.281,1117.76C339.588,1117.76 389.129,1117.76 407.436,1117.76C411.259,1117.76 414.359,1114.66 414.359,1110.84C414.359,1101.3 414.359,1084.22 414.359,1074.68ZM296.898,1074.68C296.898,1070.86 293.799,1067.76 289.976,1067.76C271.668,1067.76 222.128,1067.76 203.82,1067.76C199.997,1067.76 196.898,1070.86 196.898,1074.68C196.898,1084.22 196.898,1101.3 196.898,1110.84C196.898,1114.66 199.997,1117.76 203.82,1117.76C222.128,1117.76 271.668,1117.76 289.976,1117.76C293.799,1117.76 296.898,1114.66 296.898,1110.84C296.898,1101.3 296.898,1084.22 296.898,1074.68ZM0,1067.76L55.055,1067.76C58.878,1067.76 61.977,1070.86 61.977,1074.68C61.977,1084.22 61.977,1101.3 61.977,1110.84C61.977,1114.66 58.878,1117.76 55.055,1117.76L0,1117.76L0,1067.76ZM179.437,1074.68C179.437,1070.86 176.338,1067.76 172.515,1067.76C154.208,1067.76 104.667,1067.76 86.36,1067.76C82.537,1067.76 79.437,1070.86 79.437,1074.68C79.437,1084.22 79.437,1101.3 79.437,1110.84C79.437,1114.66 82.537,1117.76 86.36,1117.76C104.667,1117.76 154.208,1117.76 172.515,1117.76C176.338,1117.76 179.437,1114.66 179.437,1110.84C179.437,1101.3 179.437,1084.22 179.437,1074.68ZM750,1067.76L750,1117.76L673.662,1117.76C669.839,1117.76 666.74,1114.66 666.74,1110.84C666.74,1101.3 666.74,1084.22 666.74,1074.68C666.74,1070.86 669.839,1067.76 673.662,1067.76L750,1067.76ZM236.891,1011.14C236.891,1007.31 233.792,1004.21 229.969,1004.21C211.661,1004.21 162.121,1004.21 143.813,1004.21C139.99,1004.21 136.891,1007.31 136.891,1011.14C136.891,1020.67 136.891,1037.76 136.891,1047.29C136.891,1051.12 139.99,1054.21 143.813,1054.21C162.121,1054.21 211.661,1054.21 229.969,1054.21C233.792,1054.21 236.891,1051.12 236.891,1047.29C236.891,1037.76 236.891,1020.67 236.891,1011.14ZM589.273,1011.14C589.273,1007.31 586.174,1004.21 582.351,1004.21C564.043,1004.21 514.503,1004.21 496.195,1004.21C492.372,1004.21 489.273,1007.31 489.273,1011.14C489.273,1020.67 489.273,1037.76 489.273,1047.29C489.273,1051.12 492.372,1054.21 496.195,1054.21C514.503,1054.21 564.043,1054.21 582.351,1054.21C586.174,1054.21 589.273,1051.12 589.273,1047.29C589.273,1037.76 589.273,1020.67 589.273,1011.14ZM706.733,1011.14C706.733,1007.31 703.634,1004.21 699.811,1004.21C681.504,1004.21 631.963,1004.21 613.656,1004.21C609.833,1004.21 606.733,1007.31 606.733,1011.14C606.733,1020.67 606.733,1037.76 606.733,1047.29C606.733,1051.12 609.833,1054.21 613.656,1054.21C631.963,1054.21 681.504,1054.21 699.811,1054.21C703.634,1054.21 706.733,1051.12 706.733,1047.29C706.733,1037.76 706.733,1020.67 706.733,1011.14ZM471.812,1011.14C471.812,1007.31 468.713,1004.21 464.89,1004.21C446.583,1004.21 397.042,1004.21 378.734,1004.21C374.911,1004.21 371.812,1007.31 371.812,1011.14C371.812,1020.67 371.812,1037.76 371.812,1047.29C371.812,1051.12 374.911,1054.21 378.734,1054.21C397.042,1054.21 446.583,1054.21 464.89,1054.21C468.713,1054.21 471.812,1051.12 471.812,1047.29C471.812,1037.76 471.812,1020.67 471.812,1011.14ZM354.352,1011.14C354.352,1007.31 351.253,1004.21 347.43,1004.21C329.122,1004.21 279.581,1004.21 261.274,1004.21C257.451,1004.21 254.352,1007.31 254.352,1011.14C254.352,1020.67 254.352,1037.76 254.352,1047.29C254.352,1051.12 257.451,1054.21 261.274,1054.21C279.581,1054.21 329.122,1054.21 347.43,1054.21C351.253,1054.21 354.352,1051.12 354.352,1047.29C354.352,1037.76 354.352,1020.67 354.352,1011.14ZM119.431,1011.14C119.431,1007.31 116.331,1004.21 112.508,1004.21C94.201,1004.21 44.66,1004.21 26.353,1004.21C22.53,1004.21 19.431,1007.31 19.431,1011.14C19.431,1020.67 19.431,1037.76 19.431,1047.29C19.431,1051.12 22.53,1054.21 26.353,1054.21C44.66,1054.21 94.201,1054.21 112.508,1054.21C116.331,1054.21 119.431,1051.12 119.431,1047.29C119.431,1037.76 119.431,1020.67 119.431,1011.14ZM750,1004.21L750,1054.21L731.116,1054.21C727.293,1054.21 724.194,1051.12 724.194,1047.29C724.194,1037.76 724.194,1020.67 724.194,1011.14C724.194,1007.31 727.293,1004.21 731.116,1004.21L750,1004.21ZM533.986,945.546C533.986,941.723 530.886,938.624 527.063,938.624C508.756,938.624 459.215,938.624 440.908,938.624C437.085,938.624 433.986,941.723 433.986,945.546C433.986,955.083 433.986,972.165 433.986,981.702C433.986,985.525 437.085,988.624 440.908,988.624C459.215,988.624 508.756,988.624 527.063,988.624C530.886,988.624 533.986,985.525 533.986,981.702C533.986,972.165 533.986,955.083 533.986,945.546ZM181.604,945.546C181.604,941.723 178.505,938.624 174.682,938.624C156.374,938.624 106.834,938.624 88.526,938.624C84.703,938.624 81.604,941.723 81.604,945.546C81.604,955.083 81.604,972.165 81.604,981.702C81.604,985.525 84.703,988.624 88.526,988.624C106.834,988.624 156.374,988.624 174.682,988.624C178.505,988.624 181.604,985.525 181.604,981.702C181.604,972.165 181.604,955.083 181.604,945.546ZM0,938.624L57.221,938.624C61.044,938.624 64.143,941.723 64.143,945.546C64.143,955.083 64.143,972.165 64.143,981.702C64.143,985.525 61.044,988.624 57.221,988.624L0,988.624L0,938.624ZM299.064,945.546C299.064,941.723 295.965,938.624 292.142,938.624C273.835,938.624 224.294,938.624 205.987,938.624C202.164,938.624 199.064,941.723 199.064,945.546C199.064,955.083 199.064,972.165 199.064,981.702C199.064,985.525 202.164,988.624 205.987,988.624C224.294,988.624 273.835,988.624 292.142,988.624C295.965,988.624 299.064,985.525 299.064,981.702C299.064,972.165 299.064,955.083 299.064,945.546ZM416.525,945.546C416.525,941.723 413.426,938.624 409.603,938.624C391.295,938.624 341.755,938.624 323.447,938.624C319.624,938.624 316.525,941.723 316.525,945.546C316.525,955.083 316.525,972.165 316.525,981.702C316.525,985.525 319.624,988.624 323.447,988.624C341.755,988.624 391.295,988.624 409.603,988.624C413.426,988.624 416.525,985.525 416.525,981.702C416.525,972.165 416.525,955.083 416.525,945.546ZM651.446,945.546C651.446,941.723 648.347,938.624 644.524,938.624C626.216,938.624 576.676,938.624 558.368,938.624C554.545,938.624 551.446,941.723 551.446,945.546C551.446,955.083 551.446,972.165 551.446,981.702C551.446,985.525 554.545,988.624 558.368,988.624C576.676,988.624 626.216,988.624 644.524,988.624C648.347,988.624 651.446,985.525 651.446,981.702C651.446,972.165 651.446,955.083 651.446,945.546ZM750,938.624L750,988.624L675.829,988.624C672.006,988.624 668.907,985.525 668.907,981.702C668.907,972.165 668.907,955.083 668.907,945.546C668.907,941.723 672.006,938.624 675.829,938.624L750,938.624ZM356.518,882C356.518,878.177 353.419,875.078 349.596,875.078C331.288,875.078 281.748,875.078 263.44,875.078C259.617,875.078 256.518,878.177 256.518,882C256.518,891.537 256.518,908.619 256.518,918.156C256.518,921.979 259.617,925.078 263.44,925.078C281.748,925.078 331.288,925.078 349.596,925.078C353.419,925.078 356.518,921.979 356.518,918.156C356.518,908.619 356.518,891.537 356.518,882ZM239.057,882C239.057,878.177 235.958,875.078 232.135,875.078C213.828,875.078 164.287,875.078 145.98,875.078C142.157,875.078 139.057,878.177 139.057,882C139.057,891.537 139.057,908.619 139.057,918.156C139.057,921.979 142.157,925.078 145.98,925.078C164.287,925.078 213.828,925.078 232.135,925.078C235.958,925.078 239.057,921.979 239.057,918.156C239.057,908.619 239.057,891.537 239.057,882ZM121.597,882C121.597,878.177 118.498,875.078 114.675,875.078C96.367,875.078 46.827,875.078 28.519,875.078C24.696,875.078 21.597,878.177 21.597,882C21.597,891.537 21.597,908.619 21.597,918.156C21.597,921.979 24.696,925.078 28.519,925.078C46.827,925.078 96.367,925.078 114.675,925.078C118.498,925.078 121.597,921.979 121.597,918.156C121.597,908.619 121.597,891.537 121.597,882ZM591.439,882C591.439,878.177 588.34,875.078 584.517,875.078C566.209,875.078 516.669,875.078 498.361,875.078C494.538,875.078 491.439,878.177 491.439,882C491.439,891.537 491.439,908.619 491.439,918.156C491.439,921.979 494.538,925.078 498.361,925.078C516.669,925.078 566.209,925.078 584.517,925.078C588.34,925.078 591.439,921.979 591.439,918.156C591.439,908.619 591.439,891.537 591.439,882ZM708.9,882C708.9,878.177 705.801,875.078 701.978,875.078C683.67,875.078 634.13,875.078 615.822,875.078C611.999,875.078 608.9,878.177 608.9,882C608.9,891.537 608.9,908.619 608.9,918.156C608.9,921.979 611.999,925.078 615.822,925.078C634.13,925.078 683.67,925.078 701.978,925.078C705.801,925.078 708.9,921.979 708.9,918.156C708.9,908.619 708.9,891.537 708.9,882ZM473.979,882C473.979,878.177 470.879,875.078 467.056,875.078C448.749,875.078 399.208,875.078 380.901,875.078C377.078,875.078 373.979,878.177 373.979,882C373.979,891.537 373.979,908.619 373.979,918.156C373.979,921.979 377.078,925.078 380.901,925.078C399.208,925.078 448.749,925.078 467.056,925.078C470.879,925.078 473.979,921.979 473.979,918.156C473.979,908.619 473.979,891.537 473.979,882ZM750,875.078L750,925.078L733.283,925.078C729.46,925.078 726.36,921.979 726.36,918.156C726.36,908.619 726.36,891.537 726.36,882C726.36,878.177 729.46,875.078 733.283,875.078L750,875.078ZM180.472,817.572C180.472,813.749 177.373,810.65 173.549,810.65C155.242,810.65 105.701,810.65 87.394,810.65C83.571,810.65 80.472,813.749 80.472,817.572C80.472,827.11 80.472,844.191 80.472,853.728C80.472,857.551 83.571,860.65 87.394,860.65C105.701,860.65 155.242,860.65 173.549,860.65C177.373,860.65 180.472,857.551 180.472,853.728C180.472,844.191 180.472,827.11 180.472,817.572ZM297.932,817.572C297.932,813.749 294.833,810.65 291.01,810.65C272.702,810.65 223.162,810.65 204.854,810.65C201.031,810.65 197.932,813.749 197.932,817.572C197.932,827.11 197.932,844.191 197.932,853.728C197.932,857.551 201.031,860.65 204.854,860.65C223.162,860.65 272.702,860.65 291.01,860.65C294.833,860.65 297.932,857.551 297.932,853.728C297.932,844.191 297.932,827.11 297.932,817.572ZM532.853,817.572C532.853,813.749 529.754,810.65 525.931,810.65C507.624,810.65 458.083,810.65 439.776,810.65C435.953,810.65 432.853,813.749 432.853,817.572C432.853,827.11 432.853,844.191 432.853,853.728C432.853,857.551 435.953,860.65 439.776,860.65C458.083,860.65 507.624,860.65 525.931,860.65C529.754,860.65 532.853,857.551 532.853,853.728C532.853,844.191 532.853,827.11 532.853,817.572ZM0,810.65L56.089,810.65C59.912,810.65 63.011,813.749 63.011,817.572C63.011,827.11 63.011,844.191 63.011,853.728C63.011,857.551 59.912,860.65 56.089,860.65L0,860.65L0,810.65ZM650.314,817.572C650.314,813.749 647.215,810.65 643.392,810.65C625.084,810.65 575.544,810.65 557.236,810.65C553.413,810.65 550.314,813.749 550.314,817.572C550.314,827.11 550.314,844.191 550.314,853.728C550.314,857.551 553.413,860.65 557.236,860.65C575.544,860.65 625.084,860.65 643.392,860.65C647.215,860.65 650.314,857.551 650.314,853.728C650.314,844.191 650.314,827.11 650.314,817.572ZM415.393,817.572C415.393,813.749 412.294,810.65 408.471,810.65C390.163,810.65 340.623,810.65 322.315,810.65C318.492,810.65 315.393,813.749 315.393,817.572C315.393,827.11 315.393,844.191 315.393,853.728C315.393,857.551 318.492,860.65 322.315,860.65C340.623,860.65 390.163,860.65 408.471,860.65C412.294,860.65 415.393,857.551 415.393,853.728C415.393,844.191 415.393,827.11 415.393,817.572ZM750,810.65L750,860.65L674.697,860.65C670.874,860.65 667.775,857.551 667.775,853.728C667.775,844.191 667.775,827.11 667.775,817.572C667.775,813.749 670.874,810.65 674.697,810.65L750,810.65ZM237.925,754.027C237.925,750.204 234.826,747.104 231.003,747.104C212.696,747.104 163.155,747.104 144.848,747.104C141.025,747.104 137.925,750.204 137.925,754.027C137.925,763.564 137.925,780.645 137.925,790.182C137.925,794.005 141.025,797.104 144.848,797.104C163.155,797.104 212.696,797.104 231.003,797.104C234.826,797.104 237.925,794.005 237.925,790.182C237.925,780.645 237.925,763.564 237.925,754.027ZM707.768,754.027C707.768,750.204 704.668,747.104 700.845,747.104C682.538,747.104 632.997,747.104 614.69,747.104C610.867,747.104 607.768,750.204 607.768,754.027C607.768,763.564 607.768,780.645 607.768,790.182C607.768,794.005 610.867,797.104 614.69,797.104C632.997,797.104 682.538,797.104 700.845,797.104C704.668,797.104 707.768,794.005 707.768,790.182C707.768,780.645 707.768,763.564 707.768,754.027ZM355.386,754.027C355.386,750.204 352.287,747.104 348.464,747.104C330.156,747.104 280.616,747.104 262.308,747.104C258.485,747.104 255.386,750.204 255.386,754.027C255.386,763.564 255.386,780.645 255.386,790.182C255.386,794.005 258.485,797.104 262.308,797.104C280.616,797.104 330.156,797.104 348.464,797.104C352.287,797.104 355.386,794.005 355.386,790.182C355.386,780.645 355.386,763.564 355.386,754.027ZM472.847,754.027C472.847,750.204 469.747,747.104 465.924,747.104C447.617,747.104 398.076,747.104 379.769,747.104C375.946,747.104 372.847,750.204 372.847,754.027C372.847,763.564 372.847,780.645 372.847,790.182C372.847,794.005 375.946,797.104 379.769,797.104C398.076,797.104 447.617,797.104 465.924,797.104C469.747,797.104 472.847,794.005 472.847,790.182C472.847,780.645 472.847,763.564 472.847,754.027ZM590.307,754.027C590.307,750.204 587.208,747.104 583.385,747.104C565.077,747.104 515.537,747.104 497.229,747.104C493.406,747.104 490.307,750.204 490.307,754.027C490.307,763.564 490.307,780.645 490.307,790.182C490.307,794.005 493.406,797.104 497.229,797.104C515.537,797.104 565.077,797.104 583.385,797.104C587.208,797.104 590.307,794.005 590.307,790.182C590.307,780.645 590.307,763.564 590.307,754.027ZM120.465,754.027C120.465,750.204 117.366,747.104 113.543,747.104C95.235,747.104 45.695,747.104 27.387,747.104C23.564,747.104 20.465,750.204 20.465,754.027C20.465,763.564 20.465,780.645 20.465,790.182C20.465,794.005 23.564,797.104 27.387,797.104C45.695,797.104 95.235,797.104 113.543,797.104C117.366,797.104 120.465,794.005 120.465,790.182C120.465,780.645 120.465,763.564 120.465,754.027ZM750,747.104L750,797.104L732.15,797.104C728.327,797.104 725.228,794.005 725.228,790.182C725.228,780.645 725.228,763.564 725.228,754.027C725.228,750.204 728.327,747.104 732.15,747.104L750,747.104ZM649.182,689.599C649.182,685.776 646.083,682.677 642.26,682.677C623.952,682.677 574.412,682.677 556.104,682.677C552.281,682.677 549.182,685.776 549.182,689.599C549.182,699.136 549.182,716.217 549.182,725.754C549.182,729.577 552.281,732.677 556.104,732.677C574.412,732.677 623.952,732.677 642.26,732.677C646.083,732.677 649.182,729.577 649.182,725.754C649.182,716.217 649.182,699.136 649.182,689.599ZM414.261,689.599C414.261,685.776 411.162,682.677 407.339,682.677C389.031,682.677 339.49,682.677 321.183,682.677C317.36,682.677 314.261,685.776 314.261,689.599C314.261,699.136 314.261,716.217 314.261,725.754C314.261,729.577 317.36,732.677 321.183,732.677C339.49,732.677 389.031,732.677 407.339,732.677C411.162,732.677 414.261,729.577 414.261,725.754C414.261,716.217 414.261,699.136 414.261,689.599ZM0,682.677L54.957,682.677C58.78,682.677 61.879,685.776 61.879,689.599C61.879,699.136 61.879,716.217 61.879,725.754C61.879,729.577 58.78,732.677 54.957,732.677L0,732.677L0,682.677ZM531.721,689.599C531.721,685.776 528.622,682.677 524.799,682.677C506.492,682.677 456.951,682.677 438.643,682.677C434.82,682.677 431.721,685.776 431.721,689.599C431.721,699.136 431.721,716.217 431.721,725.754C431.721,729.577 434.82,732.677 438.643,732.677C456.951,732.677 506.492,732.677 524.799,732.677C528.622,732.677 531.721,729.577 531.721,725.754C531.721,716.217 531.721,699.136 531.721,689.599ZM296.8,689.599C296.8,685.776 293.701,682.677 289.878,682.677C271.57,682.677 222.03,682.677 203.722,682.677C199.899,682.677 196.8,685.776 196.8,689.599C196.8,699.136 196.8,716.217 196.8,725.754C196.8,729.577 199.899,732.677 203.722,732.677C222.03,732.677 271.57,732.677 289.878,732.677C293.701,732.677 296.8,729.577 296.8,725.754C296.8,716.217 296.8,699.136 296.8,689.599ZM179.34,689.599C179.34,685.776 176.24,682.677 172.417,682.677C154.11,682.677 104.569,682.677 86.262,682.677C82.439,682.677 79.34,685.776 79.34,689.599C79.34,699.136 79.34,716.217 79.34,725.754C79.34,729.577 82.439,732.677 86.262,732.677C104.569,732.677 154.11,732.677 172.417,732.677C176.24,732.677 179.34,729.577 179.34,725.754C179.34,716.217 179.34,699.136 179.34,689.599ZM750,682.677L750,732.677L673.565,732.677C669.742,732.677 666.642,729.577 666.642,725.754C666.642,716.217 666.642,699.136 666.642,689.599C666.642,685.776 669.742,682.677 673.565,682.677L750,682.677ZM589.175,626.053C589.175,622.23 586.076,619.131 582.253,619.131C563.945,619.131 514.405,619.131 496.097,619.131C492.274,619.131 489.175,622.23 489.175,626.053C489.175,635.59 489.175,652.671 489.175,662.208C489.175,666.031 492.274,669.131 496.097,669.131C514.405,669.131 563.945,669.131 582.253,669.131C586.076,669.131 589.175,666.031 589.175,662.208C589.175,652.671 589.175,635.59 589.175,626.053ZM471.714,626.053C471.714,622.23 468.615,619.131 464.792,619.131C446.485,619.131 396.944,619.131 378.637,619.131C374.814,619.131 371.714,622.23 371.714,626.053C371.714,635.59 371.714,652.671 371.714,662.208C371.714,666.031 374.814,669.131 378.637,669.131C396.944,669.131 446.485,669.131 464.792,669.131C468.615,669.131 471.714,666.031 471.714,662.208C471.714,652.671 471.714,635.59 471.714,626.053ZM119.333,626.053C119.333,622.23 116.233,619.131 112.41,619.131C94.103,619.131 44.562,619.131 26.255,619.131C22.432,619.131 19.333,622.23 19.333,626.053C19.333,635.59 19.333,652.671 19.333,662.208C19.333,666.031 22.432,669.131 26.255,669.131C44.562,669.131 94.103,669.131 112.41,669.131C116.233,669.131 119.333,666.031 119.333,662.208C119.333,652.671 119.333,635.59 119.333,626.053ZM706.636,626.053C706.636,622.23 703.536,619.131 699.713,619.131C681.406,619.131 631.865,619.131 613.558,619.131C609.735,619.131 606.636,622.23 606.636,626.053C606.636,635.59 606.636,652.671 606.636,662.208C606.636,666.031 609.735,669.131 613.558,669.131C631.865,669.131 681.406,669.131 699.713,669.131C703.536,669.131 706.636,666.031 706.636,662.208C706.636,652.671 706.636,635.59 706.636,626.053ZM354.254,626.053C354.254,622.23 351.155,619.131 347.332,619.131C329.024,619.131 279.484,619.131 261.176,619.131C257.353,619.131 254.254,622.23 254.254,626.053C254.254,635.59 254.254,652.671 254.254,662.208C254.254,666.031 257.353,669.131 261.176,669.131C279.484,669.131 329.024,669.131 347.332,669.131C351.155,669.131 354.254,666.031 354.254,662.208C354.254,652.671 354.254,635.59 354.254,626.053ZM236.793,626.053C236.793,622.23 233.694,619.131 229.871,619.131C211.563,619.131 162.023,619.131 143.715,619.131C139.892,619.131 136.793,622.23 136.793,626.053C136.793,635.59 136.793,652.671 136.793,662.208C136.793,666.031 139.892,669.131 143.715,669.131C162.023,669.131 211.563,669.131 229.871,669.131C233.694,669.131 236.793,666.031 236.793,662.208C236.793,652.671 236.793,635.59 236.793,626.053ZM750,619.131L750,669.131L731.018,669.131C727.195,669.131 724.096,666.031 724.096,662.208C724.096,652.671 724.096,635.59 724.096,626.053C724.096,622.23 727.195,619.131 731.018,619.131L750,619.131ZM295.668,561.625C295.668,557.802 292.569,554.703 288.746,554.703C270.438,554.703 220.898,554.703 202.59,554.703C198.767,554.703 195.668,557.802 195.668,561.625C195.668,571.162 195.668,588.243 195.668,597.781C195.668,601.604 198.767,604.703 202.59,604.703C220.898,604.703 270.438,604.703 288.746,604.703C292.569,604.703 295.668,601.604 295.668,597.781C295.668,588.243 295.668,571.162 295.668,561.625ZM0,554.703L53.825,554.703C57.648,554.703 60.747,557.802 60.747,561.625C60.747,571.162 60.747,588.243 60.747,597.781C60.747,601.604 57.648,604.703 53.825,604.703L0,604.703L0,554.703ZM178.207,561.625C178.207,557.802 175.108,554.703 171.285,554.703C152.978,554.703 103.437,554.703 85.13,554.703C81.307,554.703 78.207,557.802 78.207,561.625C78.207,571.162 78.207,588.243 78.207,597.781C78.207,601.604 81.307,604.703 85.13,604.703C103.437,604.703 152.978,604.703 171.285,604.703C175.108,604.703 178.207,601.604 178.207,597.781C178.207,588.243 178.207,571.162 178.207,561.625ZM413.129,561.625C413.129,557.802 410.029,554.703 406.206,554.703C387.899,554.703 338.358,554.703 320.051,554.703C316.228,554.703 313.129,557.802 313.129,561.625C313.129,571.162 313.129,588.243 313.129,597.781C313.129,601.604 316.228,604.703 320.051,604.703C338.358,604.703 387.899,604.703 406.206,604.703C410.029,604.703 413.129,601.604 413.129,597.781C413.129,588.243 413.129,571.162 413.129,561.625ZM530.589,561.625C530.589,557.802 527.49,554.703 523.667,554.703C505.359,554.703 455.819,554.703 437.511,554.703C433.688,554.703 430.589,557.802 430.589,561.625C430.589,571.162 430.589,588.243 430.589,597.781C430.589,601.604 433.688,604.703 437.511,604.703C455.819,604.703 505.359,604.703 523.667,604.703C527.49,604.703 530.589,601.604 530.589,597.781C530.589,588.243 530.589,571.162 530.589,561.625ZM648.05,561.625C648.05,557.802 644.951,554.703 641.128,554.703C622.82,554.703 573.279,554.703 554.972,554.703C551.149,554.703 548.05,557.802 548.05,561.625C548.05,571.162 548.05,588.243 548.05,597.781C548.05,601.604 551.149,604.703 554.972,604.703C573.279,604.703 622.82,604.703 641.128,604.703C644.951,604.703 648.05,601.604 648.05,597.781C648.05,588.243 648.05,571.162 648.05,561.625ZM750,554.703L750,604.703L672.432,604.703C668.609,604.703 665.51,601.604 665.51,597.781C665.51,588.243 665.51,571.162 665.51,561.625C665.51,557.802 668.609,554.703 672.432,554.703L750,554.703ZM705.503,498.079C705.503,494.256 702.404,491.157 698.581,491.157C680.274,491.157 630.733,491.157 612.426,491.157C608.603,491.157 605.503,494.256 605.503,498.079C605.503,507.616 605.503,524.698 605.503,534.235C605.503,538.058 608.603,541.157 612.426,541.157C630.733,541.157 680.274,541.157 698.581,541.157C702.404,541.157 705.503,538.058 705.503,534.235C705.503,524.698 705.503,507.616 705.503,498.079ZM353.122,498.079C353.122,494.256 350.023,491.157 346.199,491.157C327.892,491.157 278.351,491.157 260.044,491.157C256.221,491.157 253.122,494.256 253.122,498.079C253.122,507.616 253.122,524.698 253.122,534.235C253.122,538.058 256.221,541.157 260.044,541.157C278.351,541.157 327.892,541.157 346.199,541.157C350.023,541.157 353.122,538.058 353.122,534.235C353.122,524.698 353.122,507.616 353.122,498.079ZM235.661,498.079C235.661,494.256 232.562,491.157 228.739,491.157C210.431,491.157 160.891,491.157 142.583,491.157C138.76,491.157 135.661,494.256 135.661,498.079C135.661,507.616 135.661,524.698 135.661,534.235C135.661,538.058 138.76,541.157 142.583,541.157C160.891,541.157 210.431,541.157 228.739,541.157C232.562,541.157 235.661,538.058 235.661,534.235C235.661,524.698 235.661,507.616 235.661,498.079ZM470.582,498.079C470.582,494.256 467.483,491.157 463.66,491.157C445.352,491.157 395.812,491.157 377.504,491.157C373.681,491.157 370.582,494.256 370.582,498.079C370.582,507.616 370.582,524.698 370.582,534.235C370.582,538.058 373.681,541.157 377.504,541.157C395.812,541.157 445.352,541.157 463.66,541.157C467.483,541.157 470.582,538.058 470.582,534.235C470.582,524.698 470.582,507.616 470.582,498.079ZM588.043,498.079C588.043,494.256 584.944,491.157 581.121,491.157C562.813,491.157 513.273,491.157 494.965,491.157C491.142,491.157 488.043,494.256 488.043,498.079C488.043,507.616 488.043,524.698 488.043,534.235C488.043,538.058 491.142,541.157 494.965,541.157C513.273,541.157 562.813,541.157 581.121,541.157C584.944,541.157 588.043,538.058 588.043,534.235C588.043,524.698 588.043,507.616 588.043,498.079ZM118.201,498.079C118.201,494.256 115.101,491.157 111.278,491.157C92.971,491.157 43.43,491.157 25.123,491.157C21.3,491.157 18.201,494.256 18.201,498.079C18.201,507.616 18.201,524.698 18.201,534.235C18.201,538.058 21.3,541.157 25.123,541.157C43.43,541.157 92.971,541.157 111.278,541.157C115.101,541.157 118.201,538.058 118.201,534.235C118.201,524.698 118.201,507.616 118.201,498.079ZM750,491.157L750,541.157L729.886,541.157C726.063,541.157 722.964,538.058 722.964,534.235C722.964,524.698 722.964,507.616 722.964,498.079C722.964,494.256 726.063,491.157 729.886,491.157L750,491.157Z" style="fill:rgb(96,49,63);"/>
        </g>
        <g id="Fireplace">
            <g transform="matrix(1.27294,0,0,1,-158.05,0)">
                <path d="M594.947,935.18C594.947,897.399 570.886,866.77 541.205,866.77L296.307,866.77C266.626,866.77 242.565,897.399 242.565,935.18L242.565,1334L594.947,1334L594.947,935.18Z" style="fill:rgb(120,107,91);"/>
                <path d="M613.449,935.18C613.449,884.391 581.104,843.218 541.205,843.218L296.307,843.218C256.408,843.218 224.063,884.391 224.063,935.18L224.063,1334C224.063,1347.01 232.347,1357.55 242.565,1357.55L594.947,1357.55C605.165,1357.55 613.449,1347.01 613.449,1334L613.449,935.18ZM594.947,935.18C594.947,897.399 570.886,866.77 541.205,866.77L296.307,866.77C266.626,866.77 242.565,897.399 242.565,935.18L242.565,1334L594.947,1334L594.947,935.18Z" style="fill:rgb(28,20,11);fill-opacity:0.38;"/>
            </g>
            <path d="M532.853,1094.94C532.853,1053.48 516.384,1013.72 487.069,984.408C457.755,955.093 417.995,938.624 376.537,938.624L376.536,938.624C335.078,938.624 295.319,955.093 266.004,984.408C236.689,1013.72 220.22,1053.48 220.22,1094.94L220.22,1334L532.853,1334L532.853,1094.94Z" style="fill:rgb(70,58,43);"/>
            <path d="M340.637,1083.17C340.637,1079.35 339.123,1075.7 336.427,1073C333.732,1070.31 330.076,1068.79 326.263,1068.79C326.262,1068.79 326.262,1068.79 326.262,1068.79L326.262,1127.13C326.262,1130.94 327.776,1134.6 330.472,1137.3C333.167,1139.99 336.824,1141.51 340.636,1141.51C340.637,1141.51 340.637,1141.51 340.637,1141.51L340.637,1083.17Z" style="fill:rgb(158,81,41);"/>
            <path d="M455.285,1045.79L455.284,1045.79C446.088,1045.79 438.632,1053.25 438.632,1062.44C438.632,1075.87 438.632,1092.54 438.632,1092.54L438.633,1092.54C447.83,1092.54 455.285,1085.08 455.285,1075.88C455.285,1062.45 455.285,1045.79 455.285,1045.79Z" style="fill:rgb(158,81,41);"/>
            <g transform="matrix(0.764427,-0.19493,0.192004,0.752954,-174.674,443.528)">
                <path d="M403.764,1227.76C403.764,1219.55 397.206,1212.89 389.115,1212.89C364.295,1212.89 314.259,1212.89 289.439,1212.89C281.349,1212.89 274.79,1219.55 274.79,1227.76C274.79,1232.42 274.79,1237.56 274.79,1242.22C274.79,1250.43 281.349,1257.09 289.439,1257.09C314.259,1257.09 364.295,1257.09 389.115,1257.09C397.206,1257.09 403.764,1250.43 403.764,1242.22C403.764,1237.56 403.764,1232.42 403.764,1227.76Z" style="fill:rgb(146,53,53);"/>
            </g>
            <g transform="matrix(0.786468,0.0617598,-0.0608329,0.774664,232.337,336.109)">
                <path d="M403.764,1227.76C403.764,1219.55 397.206,1212.89 389.115,1212.89C364.295,1212.89 314.259,1212.89 289.439,1212.89C281.349,1212.89 274.79,1219.55 274.79,1227.76C274.79,1232.42 274.79,1237.56 274.79,1242.22C274.79,1250.43 281.349,1257.09 289.439,1257.09C314.259,1257.09 364.295,1257.09 389.115,1257.09C397.206,1257.09 403.764,1250.43 403.764,1242.22C403.764,1237.56 403.764,1232.42 403.764,1227.76Z" style="fill:rgb(146,53,53);"/>
            </g>
            <path d="M326.262,1202.95L326.263,1202.95C330.076,1202.95 333.732,1204.47 336.427,1207.16C339.123,1209.86 340.637,1213.52 340.637,1217.33C340.637,1230.15 340.637,1246.92 340.637,1246.92C349.007,1238.91 360.356,1233.98 372.847,1233.98C385.337,1233.98 396.686,1238.91 405.056,1246.92L405.056,1168.36C405.056,1164.55 406.57,1160.89 409.266,1158.19C411.961,1155.5 415.617,1153.98 419.43,1153.98C419.431,1153.98 419.431,1153.98 419.431,1153.98L419.431,1280.57C419.431,1306.28 398.557,1327.15 372.847,1327.15C347.136,1327.15 326.262,1306.28 326.262,1280.57L326.262,1202.95ZM450.504,1241.76L450.502,1241.76C443.947,1241.76 438.632,1247.08 438.632,1253.63L438.632,1273.29L438.634,1273.29C445.189,1273.29 450.504,1267.98 450.504,1261.42L450.504,1241.76ZM284.675,1161.63C284.675,1157.99 283.229,1154.5 280.655,1151.92C278.08,1149.35 274.589,1147.9 270.949,1147.9C270.949,1147.9 270.948,1147.9 270.948,1147.9L270.948,1171.27C270.948,1174.91 272.395,1178.4 274.969,1180.98C277.543,1183.55 281.034,1185 284.674,1185C284.675,1185 284.675,1185 284.675,1185L284.675,1161.63Z" style="fill:rgb(161,122,42);"/>
            <path d="M340.637,1185L340.639,1185C344.136,1185 347.489,1186.39 349.961,1188.86C352.434,1191.33 353.823,1194.69 353.823,1198.18C353.823,1210.37 353.823,1228.42 353.823,1240.8C353.823,1243.53 355.08,1246.1 357.23,1247.78C359.38,1249.45 362.182,1250.04 364.825,1249.38C367.388,1248.71 370.077,1248.36 372.847,1248.36C375.559,1248.36 378.195,1248.69 380.712,1249.33C383.397,1249.99 386.237,1249.38 388.414,1247.67C390.591,1245.97 391.862,1243.36 391.862,1240.59C391.87,1213.37 391.87,1153.6 391.87,1127.03C391.87,1119.75 397.773,1113.85 405.054,1113.85C405.055,1113.85 405.056,1113.85 405.056,1113.85L405.056,1280.57C405.056,1298.35 390.623,1312.78 372.847,1312.78C355.07,1312.78 340.637,1298.35 340.637,1280.57L340.637,1185Z" style="fill:rgb(158,81,41);"/>
            <path d="M391.87,1280.57C391.87,1291.07 383.346,1299.59 372.847,1299.59C362.347,1299.59 353.823,1291.07 353.823,1280.57L353.823,1217.05L353.825,1217.05C358.869,1217.05 363.708,1219.06 367.275,1222.62C370.842,1226.19 372.847,1231.03 372.847,1236.07L372.847,1261.5L372.847,1204.38C372.847,1199.34 374.851,1194.5 378.418,1190.93C381.985,1187.37 386.824,1185.36 391.869,1185.36C391.87,1185.36 391.87,1185.36 391.87,1185.36L391.87,1280.57Z" style="fill:rgb(160,51,51);"/>
            <circle cx="372.847" cy="1276.66" r="327.38" style="fill:rgb(237,150,39);fill-opacity:0.32;"/>
        </g>
    </g>
    <g id="Christmas-Tree" serif:id="Christmas Tree" transform="matrix(0.511713,0,0,0.511713,-5.14656,707.366)">
        <g transform="matrix(1,0,0,1,34.7493,-13.9931)">
            <path d="M213.745,463.572C216.169,459.886 216.375,455.166 214.281,451.282C212.187,447.399 208.131,444.978 203.719,444.978C183.584,444.978 154.088,444.978 133.954,444.978C129.542,444.978 125.485,442.556 123.391,438.673C121.297,434.789 121.503,430.07 123.928,426.384C164.355,364.918 293.218,168.994 330.225,112.728C332.444,109.354 336.212,107.322 340.251,107.322C344.289,107.322 348.057,109.354 350.277,112.728C387.283,168.994 516.146,364.918 556.573,426.384C558.998,430.07 559.204,434.789 557.11,438.673C555.016,442.556 550.96,444.978 546.548,444.978C526.413,444.978 496.917,444.978 476.782,444.978C472.37,444.978 468.314,447.399 466.22,451.282C464.126,455.166 464.332,459.886 466.757,463.572C498.573,511.945 583.659,641.312 615.475,689.685C617.9,693.372 618.106,698.091 616.012,701.975C613.918,705.858 609.862,708.279 605.45,708.279C578.457,708.279 533.227,708.279 506.233,708.279C501.821,708.279 497.765,710.701 495.671,714.584C493.577,718.468 493.783,723.187 496.208,726.874C533.524,783.61 645.651,954.089 682.967,1010.83C685.392,1014.51 685.598,1019.23 683.504,1023.11C681.41,1027 677.354,1029.42 672.942,1029.42L7.56,1029.42C3.148,1029.42 -0.909,1027 -3.003,1023.11C-5.097,1019.23 -4.891,1014.51 -2.466,1010.83C34.85,954.089 146.977,783.61 184.294,726.874C186.718,723.187 186.924,718.468 184.83,714.584C182.736,710.701 178.68,708.279 174.268,708.279C147.275,708.279 102.045,708.279 75.052,708.279C70.64,708.279 66.583,705.858 64.489,701.975C62.395,698.091 62.601,693.372 65.026,689.685C96.842,641.312 181.929,511.945 213.745,463.572Z" style="fill:rgb(75,105,65);"/>
        </g>
        <rect x="375" y="694.286" width="147.193" height="27.025" style="fill:rgb(66,85,60);"/>
        <g transform="matrix(0.805305,0,0,1,73.0107,-263.302)">
            <rect x="375" y="694.286" width="147.193" height="27.025" style="fill:rgb(66,85,60);"/>
        </g>
        <path d="M540.983,694.286C536.571,694.286 532.514,696.708 530.42,700.591C528.326,704.475 528.532,709.194 530.957,712.881C568.273,769.617 680.4,940.096 717.717,996.832C720.141,1000.52 720.347,1005.24 718.253,1009.12C716.159,1013 712.103,1015.43 707.691,1015.43L42.309,1015.43L677.382,1015.43C681.794,1015.43 685.85,1013 687.944,1009.12C690.038,1005.24 689.832,1000.52 687.408,996.832C650.091,940.096 537.964,769.617 500.648,712.881C498.223,709.194 498.017,704.475 500.111,700.591C502.205,696.708 506.262,694.286 510.674,694.286L540.983,694.286ZM359.845,106.533L364.974,98.735C367.194,95.361 370.961,93.329 375,93.329C379.039,93.329 382.806,95.361 385.026,98.735C422.033,155.001 550.896,350.925 591.323,412.39C593.747,416.077 593.953,420.796 591.859,424.68C589.765,428.563 585.709,430.985 581.297,430.985C561.162,430.985 531.666,430.985 511.532,430.985C507.12,430.985 503.063,433.406 500.969,437.289C498.875,441.173 499.081,445.892 501.506,449.579C533.322,497.952 618.409,627.319 650.225,675.692C652.649,679.379 652.855,684.098 650.761,687.982C648.667,691.865 644.611,694.286 640.199,694.286L609.89,694.286C614.302,694.286 618.358,691.865 620.452,687.982C622.546,684.098 622.34,679.379 619.916,675.692C588.1,627.319 503.013,497.952 471.197,449.579C468.772,445.892 468.566,441.173 470.66,437.289C472.754,433.406 476.811,430.985 481.223,430.985C501.357,430.985 530.853,430.985 550.988,430.985C555.4,430.985 559.456,428.563 561.55,424.68C563.644,420.796 563.438,416.077 561.014,412.39L359.845,106.533ZM178.708,694.286L109.801,694.286C109.801,694.286 178.708,694.286 178.708,694.286ZM208.159,430.985L168.703,430.985C168.703,430.985 208.159,430.985 208.159,430.985Z" style="fill:rgb(91,129,78);"/>
        <path d="M375,93.329L375,1015.43L42.309,1015.43C37.897,1015.43 33.841,1013 31.747,1009.12C29.653,1005.24 29.859,1000.52 32.283,996.832C69.6,940.096 181.727,769.617 219.043,712.881C221.468,709.194 221.674,704.475 219.58,700.591C217.486,696.708 213.429,694.286 209.017,694.286L109.801,694.286C105.389,694.286 101.333,691.865 99.239,687.982C97.145,684.098 97.351,679.379 99.775,675.692C131.591,627.319 216.678,497.952 248.494,449.579C250.919,445.892 251.125,441.173 249.031,437.289C246.937,433.406 242.88,430.985 238.468,430.985C218.334,430.985 188.838,430.985 168.703,430.985C164.291,430.985 160.235,428.563 158.141,424.68C156.047,420.796 156.253,416.077 158.677,412.39C199.104,350.925 327.967,155.001 364.974,98.735C367.194,95.361 370.961,93.329 375,93.329Z" style="fill:rgb(53,73,47);"/>
        <path d="M209.017,694.286L239.326,694.286C243.738,694.286 247.795,696.708 249.889,700.591C251.983,704.475 251.777,709.194 249.352,712.881C212.036,769.617 99.909,940.096 62.592,996.832C60.168,1000.52 59.962,1005.24 62.056,1009.12C64.15,1013 68.206,1015.43 72.618,1015.43L375,1015.43L42.309,1015.43C37.897,1015.43 33.841,1013 31.747,1009.12C29.653,1005.24 29.859,1000.52 32.283,996.832C69.6,940.096 181.727,769.617 219.043,712.881C221.468,709.194 221.674,704.475 219.58,700.591C219.526,700.492 219.471,700.393 219.415,700.296C219.271,700.047 219.119,699.804 218.96,699.568C218.805,699.338 218.642,699.115 218.473,698.898C218.408,698.814 218.341,698.732 218.274,698.65L218.205,698.567L218.078,698.419C215.872,695.877 212.664,694.347 209.224,694.288C209.224,694.288 209.017,694.286 209.017,694.286ZM238.468,430.985C238.468,430.985 268.777,430.985 268.777,430.985C273.189,430.985 277.246,433.406 279.34,437.289C281.434,441.173 281.228,445.892 278.803,449.579C246.987,497.952 161.9,627.319 130.084,675.692C127.66,679.379 127.454,684.098 129.548,687.982C131.642,691.865 135.698,694.286 140.11,694.286L109.801,694.286C105.389,694.286 101.333,691.865 99.239,687.982C97.145,684.098 97.351,679.379 99.775,675.692C131.591,627.319 216.678,497.952 248.494,449.579C250.919,445.892 251.125,441.173 249.031,437.289C248.951,437.141 248.868,436.995 248.782,436.851C246.626,433.224 242.712,430.985 238.468,430.985ZM375,129.574L188.986,412.39C186.562,416.077 186.356,420.796 188.45,424.68C190.544,428.563 194.6,430.985 199.012,430.985L168.703,430.985C164.291,430.985 160.235,428.563 158.141,424.68C156.047,420.796 156.253,416.077 158.677,412.39C199.104,350.925 327.967,155.001 364.974,98.735C365.019,98.667 365.064,98.6 365.11,98.534C367.31,95.332 370.925,93.391 374.811,93.331L375,93.329L375,129.574Z" style="fill:rgb(50,61,47);"/>
        <rect x="224.513" y="694.286" width="150.487" height="27.025" style="fill:rgb(50,61,47);"/>
        <g transform="matrix(0.725301,0,0,1,103.012,-263.302)">
            <rect x="224.513" y="694.286" width="150.487" height="27.025" style="fill:rgb(50,61,47);"/>
        </g>
        <g transform="matrix(1,0,0,1,-168.29,-71.8808)">
            <g transform="matrix(1,0,0,1,-18.2568,-8.25801)">
                <circle cx="488.339" cy="598.576" r="35.94" style="fill:rgb(148,70,63);"/>
            </g>
            <g transform="matrix(1,0,0,1,5.63371,22.6842)">
                <circle cx="485.769" cy="573.19" r="5.556" style="fill:rgb(196,178,169);"/>
            </g>
        </g>
        <g transform="matrix(1,0,0,1,33.9646,29.8888)">
            <g transform="matrix(1,0,0,1,-38.2125,-250.209)">
                <circle cx="488.339" cy="598.576" r="35.94" style="fill:rgb(97,147,81);"/>
            </g>
            <g transform="matrix(1,0,0,1,-16.2151,-212.094)">
                <circle cx="485.769" cy="573.19" r="5.556" style="fill:rgb(187,196,169);"/>
            </g>
        </g>
        <path d="M345.882,849.136C416.992,827.895 492.394,797.062 559.594,752.43C575.365,741.955 596.673,746.255 607.148,762.026C617.623,777.797 613.323,799.106 597.552,809.581C518.327,862.2 428.519,897.06 345.882,920.08L345.882,849.136Z" style="fill:rgb(207,172,50);"/>
        <path d="M345.882,849.136L345.882,920.08C198.052,961.415 73.22,964.953 73.22,964.953C54.294,965.467 38.511,950.519 37.997,931.594C37.482,912.668 52.43,896.885 71.356,896.37C71.356,896.37 199.443,893.05 345.882,849.136Z" style="fill:rgb(167,136,28);"/>
        <path d="M344.061,570.715C405.592,556.264 473.98,534.886 540.86,503.349C557.984,495.275 578.443,502.622 586.518,519.746C594.593,536.871 587.246,557.33 570.121,565.405C492.891,601.821 413.776,625.542 344.061,640.949L344.061,570.715Z" style="fill:rgb(207,172,50);"/>
        <path d="M344.061,570.715L344.061,640.949C219.15,668.654 124.347,669.782 124.347,669.782C105.415,670.012 89.859,654.829 89.629,635.897C89.399,616.966 104.583,601.409 123.514,601.179C123.514,601.179 219.864,599.986 344.061,570.715Z" style="fill:rgb(167,136,28);"/>
        <path d="M344.061,290.375C383.233,275.056 425.052,254.087 463.703,225.524C478.929,214.272 500.426,217.498 511.679,232.724C522.931,247.951 519.705,269.448 504.479,280.7C452.357,319.219 395.116,345.468 344.061,363.209L344.061,290.375Z" style="fill:rgb(207,172,50);"/>
        <path d="M344.061,290.375L344.061,363.209C259.836,392.5 192.41,398.678 192.41,398.678C173.556,400.4 156.85,386.492 155.127,367.637C153.405,348.783 167.314,332.077 186.168,330.354C186.168,330.354 258.826,323.736 344.061,290.375Z" style="fill:rgb(167,136,28);"/>
        <g>
            <g transform="matrix(0.698599,0.193548,-0.193548,0.698599,672.916,152.249)">
                <g transform="matrix(1,0,0,1,-14.7255,-28.4915)">
                    <path d="M125.097,1176.64L125.097,1144.43C125.097,1125.73 140.28,1110.55 158.98,1110.55C177.681,1110.55 192.863,1125.73 192.863,1144.43L208.159,1144.43L192.863,1144.43L192.863,1317.24C192.863,1325.68 199.717,1332.54 208.159,1332.54C216.601,1332.54 223.455,1325.68 223.455,1317.24L223.455,1144.43L208.159,1144.43L223.455,1144.43C223.455,1108.85 194.565,1079.96 158.98,1079.96C123.395,1079.96 94.505,1108.85 94.505,1144.43C94.505,1144.43 94.505,1176.64 94.505,1176.64C94.505,1185.09 101.359,1191.94 109.801,1191.94C118.243,1191.94 125.097,1185.09 125.097,1176.64Z" style="fill:rgb(207,187,195);"/>
                </g>
                <path d="M178.138,1285.64L208.73,1253.33L208.73,1279.43L186.835,1302.55C181.693,1300.08 178.138,1294.83 178.138,1288.75L178.138,1285.64ZM208.73,1228.68L178.138,1260.98L178.138,1234.89L208.73,1202.58L208.73,1228.68ZM208.73,1177.93L178.138,1210.23L178.138,1184.14L208.73,1151.83L208.73,1177.93ZM208.73,1115.94L208.73,1127.18L178.138,1159.48L178.138,1133.39L194.659,1115.94L208.73,1115.94ZM110.396,1114.64C110.38,1115.07 110.371,1115.51 110.371,1115.94L110.371,1135.12L80.194,1151.7C79.923,1150.56 79.779,1149.37 79.779,1148.15L79.779,1131.45L110.396,1114.64ZM207.336,1102.55C208.249,1106.87 208.73,1111.35 208.73,1115.94L194.659,1115.94L207.336,1102.55ZM188.804,1069.35C193.248,1073.6 197.085,1078.48 200.174,1083.84L177.861,1111.59C176.967,1104.63 173.959,1098.33 169.502,1093.35L188.804,1069.35ZM95.336,1073.96L122.779,1089.74C118.099,1093.58 114.465,1098.65 112.372,1104.45L85.633,1089.08C88.16,1083.58 91.439,1078.49 95.336,1073.96ZM136.206,1051.96C138.842,1051.63 141.529,1051.47 144.255,1051.47C147.628,1051.47 150.941,1051.72 154.175,1052.23L155.48,1083.96C151.964,1082.73 148.187,1082.06 144.255,1082.06C141.932,1082.06 139.664,1082.29 137.471,1082.74L136.206,1051.96Z" style="fill:rgb(156,32,51);"/>
            </g>
            <g transform="matrix(1.21665,0,0,1,-134.689,-17.2197)">
                <ellipse cx="599.125" cy="964.408" rx="3.62" ry="5.112" style="fill:rgb(233,232,232);"/>
            </g>
        </g>
        <g transform="matrix(1.40319,0,0,0.93782,-243.125,63.0973)">
            <rect x="375" y="1014.76" width="131.03" height="223.737" style="fill:rgb(112,29,40);"/>
        </g>
        <rect x="426.891" y="1014.76" width="40.039" height="209.825" style="fill:rgb(146,53,53);"/>
        <path d="M76.905,1015.43L142.697,1015.43C142.697,1015.43 142.697,1069.62 142.697,1069.62C142.697,1087.78 127.957,1102.52 109.801,1102.52C91.645,1102.52 76.905,1087.78 76.905,1069.62L76.905,1015.43Z" style="fill:rgb(167,136,28);"/>
        <g transform="matrix(1.23203,0,0,1.23203,-224.775,-190.901)">
            <path d="M477.268,122.726C478.613,118.588 482.469,115.786 486.82,115.786C491.171,115.786 495.027,118.588 496.371,122.726C501.209,137.614 506.678,154.446 509.67,163.655C511.014,167.793 514.871,170.595 519.221,170.595C528.904,170.595 546.603,170.595 562.257,170.595C566.608,170.595 570.464,173.396 571.809,177.534C573.153,181.672 571.68,186.205 568.16,188.763C555.496,197.964 541.177,208.367 533.344,214.058C529.824,216.616 528.351,221.149 529.695,225.287C532.687,234.496 538.157,251.328 542.994,266.216C544.339,270.354 542.866,274.887 539.346,277.445C535.826,280.002 531.059,280.002 527.54,277.445C514.875,268.243 500.556,257.84 492.723,252.149C489.203,249.592 484.436,249.592 480.917,252.149C473.083,257.84 458.764,268.243 446.1,277.445C442.58,280.002 437.813,280.002 434.294,277.445C430.774,274.887 429.301,270.354 430.645,266.216C435.483,251.328 440.952,234.496 443.944,225.287C445.288,221.149 443.816,216.616 440.296,214.058C432.462,208.367 418.144,197.964 405.479,188.763C401.959,186.205 400.486,181.672 401.831,177.534C403.175,173.396 407.031,170.595 411.382,170.595C427.036,170.595 444.735,170.595 454.418,170.595C458.769,170.595 462.625,167.793 463.969,163.655C466.962,154.446 472.431,137.614 477.268,122.726Z" style="fill:rgb(207,172,50);"/>
        </g>
        <g transform="matrix(0.518581,0,0,0.518581,140.858,2.3195)">
            <path d="M601.503,209.427C601.503,228.864 617.261,244.622 636.698,244.622L659.328,244.622C662.325,244.622 665.199,245.812 667.318,247.932C669.437,250.051 670.628,252.925 670.628,255.922C670.628,255.924 670.628,255.926 670.628,255.929C670.628,258.926 669.437,261.8 667.318,263.919C665.199,266.038 662.325,267.229 659.328,267.229C653.067,267.229 644.907,267.229 636.698,267.229C617.261,267.229 601.503,282.986 601.503,302.424L601.503,325.053C601.503,328.05 600.313,330.924 598.193,333.044C596.074,335.163 593.2,336.353 590.203,336.353C590.201,336.353 590.199,336.353 590.196,336.353C587.199,336.353 584.325,335.163 582.206,333.044C580.087,330.924 578.896,328.05 578.896,325.053C578.896,318.793 578.896,310.632 578.896,302.424C578.896,282.986 563.139,267.229 543.701,267.229L521.072,267.229C518.075,267.229 515.201,266.038 513.081,263.919C510.962,261.8 509.772,258.926 509.772,255.929C509.772,255.926 509.772,255.924 509.772,255.922C509.772,252.925 510.962,250.051 513.081,247.932C515.201,245.812 518.075,244.622 521.072,244.622C527.332,244.622 535.493,244.622 543.701,244.622C563.139,244.622 578.896,228.864 578.896,209.427L578.896,186.797C578.896,183.8 580.087,180.926 582.206,178.807C584.325,176.688 587.199,175.497 590.196,175.497C590.199,175.497 590.201,175.497 590.203,175.497C593.2,175.497 596.074,176.688 598.193,178.807C600.313,180.926 601.503,183.8 601.503,186.797C601.503,193.058 601.503,201.218 601.503,209.427Z" style="fill:rgb(222,214,220);"/>
        </g>
    </g>
</svg>
