<?xml version="1.0" encoding="UTF-8" standalone="no"?>
<!DOCTYPE svg PUBLIC "-//W3C//DTD SVG 1.1//EN" "http://www.w3.org/Graphics/SVG/1.1/DTD/svg11.dtd">
<svg width="100%" height="100%" viewBox="0 0 64 64" version="1.1" xmlns="http://www.w3.org/2000/svg" xmlns:xlink="http://www.w3.org/1999/xlink" xml:space="preserve" xmlns:serif="http://www.serif.com/" style="fill-rule:evenodd;clip-rule:evenodd;stroke-linejoin:round;stroke-miterlimit:2;">
    <g transform="matrix(1,0,0,1,-92,0)">
        <g transform="matrix(0.852209,0,0,0.848747,45.5004,0)">
            <g id="Search">
                <rect id="Search_32x32pt" x="54.564" y="0" width="75.099" height="75.405" style="fill:none;"/>
                <g id="Search_32x32pt1" serif:id="Search_32x32pt">
                    <g transform="matrix(1.17342,0,0,1.17821,-54.3038,-0.91643)">
                        <path d="M129.891,41.002C123.253,46.114 113.686,45.634 107.612,39.559C101.01,32.957 101.015,22.232 107.624,15.624C114.232,9.015 124.957,9.01 131.559,15.612C137.634,21.686 138.114,31.253 133.002,37.891L146.892,51.781L143.781,54.892L129.891,41.002ZM110.735,18.735C115.625,13.845 123.562,13.837 128.448,18.723C133.333,23.608 133.326,31.545 128.435,36.435C123.545,41.326 115.608,41.333 110.723,36.448C105.837,31.562 105.845,23.625 110.735,18.735Z" style="fill:rgb(156,141,141);"/>
                    </g>
                </g>
            </g>
        </g>
    </g>
</svg>
