<?xml version="1.0" encoding="UTF-8" standalone="no"?>
<!DOCTYPE svg PUBLIC "-//W3C//DTD SVG 1.1//EN" "http://www.w3.org/Graphics/SVG/1.1/DTD/svg11.dtd">
<svg width="100%" height="100%" viewBox="0 0 32 32" version="1.1" xmlns="http://www.w3.org/2000/svg" xmlns:xlink="http://www.w3.org/1999/xlink" xml:space="preserve" xmlns:serif="http://www.serif.com/" style="fill-rule:evenodd;clip-rule:evenodd;stroke-linejoin:round;stroke-miterlimit:2;">
    <g transform="matrix(1.14147,0,0,0.958514,42.491,0)">
        <g id="Search">
            <rect id="Search_16x16pt" x="-37.225" y="0" width="28.034" height="33.385" style="fill:none;"/>
            <g id="Search_16x16pt1" serif:id="Search_16x16pt">
                <g transform="matrix(0.876066,0,0,1.04328,-37.9063,-0.811483)">
                    <path d="M18.291,21.402C14.812,23.49 10.229,23.035 7.231,20.037C3.698,16.504 3.698,10.765 7.231,7.231C10.765,3.698 16.504,3.698 20.037,7.231C23.035,10.229 23.49,14.812 21.402,18.291L28.975,25.863L25.863,28.975L18.291,21.402ZM10.343,10.343C12.16,8.526 15.109,8.526 16.926,10.343C18.743,12.16 18.743,15.109 16.926,16.926C15.109,18.743 12.16,18.743 10.343,16.926C8.526,15.109 8.526,12.16 10.343,10.343Z" style="fill:rgb(156,141,141);"/>
                </g>
            </g>
        </g>
    </g>
</svg>
